<?xml version="1.0" standalone="no"?>
<!DOCTYPE svg PUBLIC "-//W3C//DTD SVG 20010904//EN"
 "http://www.w3.org/TR/2001/REC-SVG-20010904/DTD/svg10.dtd">
<svg version="1.0" xmlns="http://www.w3.org/2000/svg"
 width="353.000000pt" height="353.000000pt" viewBox="0 0 353.000000 353.000000"
 preserveAspectRatio="xMidYMid meet">
<metadata>
Created by potrace 1.14, written by Peter Selinger 2001-2017
</metadata>
<g transform="translate(0.000000,353.000000) scale(0.100000,-0.100000)"
fill="#000000" stroke="none">
<path d="M2638 2945 c-2 -2 -3 -271 -2 -597 1 -671 3 -654 -73 -738 -88 -98
-209 -127 -345 -84 -58 18 -162 118 -167 159 -1 6 -6 25 -12 44 -15 46 -5 147
19 197 12 22 39 59 62 82 98 97 285 110 394 27 19 -14 36 -22 38 -18 2 4 4 89
4 188 l-1 180 -50 14 c-54 15 -235 20 -301 9 -66 -11 -169 -54 -231 -96 -185
-126 -284 -313 -278 -525 3 -102 5 -114 35 -195 102 -273 382 -442 675 -409
67 7 159 31 180 47 6 4 20 11 33 14 22 7 22 6 22 -86 l0 -94 -75 1 c-41 1 -75
-1 -75 -4 0 -3 72 -80 160 -171 l159 -165 78 82 c43 45 111 115 150 157 40 41
74 80 75 87 2 10 -14 14 -57 15 -33 1 -66 2 -72 3 -10 1 -13 180 -13 861 l0
860 -24 15 c-31 20 -303 144 -308 140z"/>
<path d="M1314 2338 l0 -603 -29 -59 c-54 -108 -156 -170 -277 -169 -56 0
-158 29 -158 45 0 4 -6 8 -14 8 -20 0 -86 78 -108 130 -27 60 -27 159 0 220
25 58 84 121 142 151 38 20 59 24 140 24 98 0 150 -16 194 -61 10 -9 20 -14
23 -10 8 8 10 354 3 367 -12 19 -151 39 -252 35 -174 -6 -303 -63 -432 -192
-113 -112 -176 -263 -176 -415 1 -67 4 -93 24 -179 3 -14 24 -61 45 -105 149
-299 517 -427 833 -291 21 9 40 16 42 16 3 0 5 -42 4 -93 l-1 -93 -73 2 c-41
0 -74 -3 -74 -7 0 -4 28 -36 63 -72 34 -36 87 -91 118 -123 31 -33 75 -76 96
-97 l40 -38 86 88 c171 177 226 237 222 243 -2 4 -36 6 -75 5 -57 -1 -70 2
-71 14 0 9 -1 397 -2 863 -1 549 -6 850 -12 857 -14 13 -294 141 -310 141 -9
0 -12 -132 -11 -602z"/>
</g>
</svg>
